<svg xmlns="http://www.w3.org/2000/svg" viewBox="0 0 1200 900" fill="none">
  <defs>
    <linearGradient id="bg" x1="0" y1="0" x2="1" y2="1">
      <stop offset="0%" stop-color="#dbeafe"/>
      <stop offset="100%" stop-color="#eff6ff"/>
    </linearGradient>
  </defs>
  <rect width="1200" height="900" fill="url(#bg)"/>
  <circle cx="980" cy="160" r="120" fill="#137fec" opacity="0.12"/>
  <circle cx="180" cy="760" r="160" fill="#137fec" opacity="0.1"/>
  <rect x="220" y="180" width="760" height="520" rx="36" fill="#ffffff" stroke="#cbd5e1"/>
  <rect x="280" y="250" width="300" height="380" rx="24" fill="#137fec" opacity="0.12"/>
  <rect x="620" y="250" width="300" height="120" rx="18" fill="#e2e8f0"/>
  <rect x="620" y="400" width="300" height="90" rx="18" fill="#e2e8f0"/>
  <rect x="620" y="530" width="300" height="100" rx="18" fill="#e2e8f0"/>
  <path d="M410 360c-28 0-50 22-50 50 0 16 8 30 20 38-12 8-20 22-20 38 0 28 22 50 50 50s50-22 50-50c0-16-8-30-20-38 12-8 20-22 20-38 0-28-22-50-50-50z" fill="#137fec"/>
  <text x="600" y="820" text-anchor="middle" fill="#64748b" font-family="Arial,sans-serif" font-size="28">Phòng khám nha khoa hiện đại</text>
</svg>