<svg xmlns="http://www.w3.org/2000/svg" viewBox="0 0 1200 1600" fill="none">
  <defs>
    <linearGradient id="g" x1="0" y1="0" x2="1" y2="1">
      <stop offset="0%" stop-color="#0f5fb8"/>
      <stop offset="100%" stop-color="#137fec"/>
    </linearGradient>
  </defs>
  <rect width="1200" height="1600" fill="url(#g)"/>
  <circle cx="200" cy="300" r="180" fill="#ffffff" opacity="0.08"/>
  <circle cx="1000" cy="1300" r="240" fill="#ffffff" opacity="0.06"/>
  <path d="M600 520c-70 0-126 56-126 126 0 40 20 76 50 96-30 20-50 56-50 96 0 70 56 126 126 126s126-56 126-126c0-40-20-76-50-96 30-20 50-56 50-96 0-70-56-126-126-126z" fill="#ffffff" opacity="0.9"/>
</svg>