<svg xmlns="http://www.w3.org/2000/svg" viewBox="0 0 512 512" fill="none">
  <defs>
    <linearGradient id="brand" x1="0" y1="0" x2="1" y2="1">
      <stop offset="0%" stop-color="#0f5fb8"/>
      <stop offset="100%" stop-color="#137fec"/>
    </linearGradient>
  </defs>
  <rect width="512" height="512" rx="96" fill="url(#brand)"/>
  <path d="M256 118c-46 0-82 36-82 82 0 26 13 49 32 61-19 12-32 35-32 61 0 46 36 82 82 82s82-36 82-82c0-26-13-49-32-61 19-12 32-35 32-61 0-46-36-82-82-82z" fill="#ffffff"/>
  <path d="M206 362c10 26 28 42 50 42s40-16 50-42" stroke="#ffffff" stroke-width="18" stroke-linecap="round"/>
</svg>